<mxfile host="app.diagrams.net" agent="Mozilla/5.0 (Windows NT 10.0; Win64; x64; rv:136.0) Gecko/20100101 Firefox/136.0" version="26.1.3">
  <diagram id="C5RBs43oDa-KdzZeNtuy" name="Page-1">
    <mxGraphModel dx="990" dy="557" grid="1" gridSize="10" guides="1" tooltips="1" connect="1" arrows="1" fold="1" page="1" pageScale="1" pageWidth="827" pageHeight="1169" math="0" shadow="0">
      <root>
        <mxCell id="WIyWlLk6GJQsqaUBKTNV-0" />
        <mxCell id="WIyWlLk6GJQsqaUBKTNV-1" parent="WIyWlLk6GJQsqaUBKTNV-0" />
        <mxCell id="x9CeoxvAhUATu_pXnIox-78" value="START" style="ellipse;whiteSpace=wrap;html=1;fontStyle=1;fillColor=#fff2cc;strokeColor=#d6b656;" vertex="1" parent="WIyWlLk6GJQsqaUBKTNV-1">
          <mxGeometry x="344" y="80" width="160" height="60" as="geometry" />
        </mxCell>
        <mxCell id="x9CeoxvAhUATu_pXnIox-79" value="" style="endArrow=classic;html=1;rounded=0;exitX=0.5;exitY=1;exitDx=0;exitDy=0;entryX=0.5;entryY=0;entryDx=0;entryDy=0;fontStyle=1" edge="1" parent="WIyWlLk6GJQsqaUBKTNV-1" source="x9CeoxvAhUATu_pXnIox-78" target="x9CeoxvAhUATu_pXnIox-81">
          <mxGeometry width="50" height="50" relative="1" as="geometry">
            <mxPoint x="500" y="230" as="sourcePoint" />
            <mxPoint x="404" y="170" as="targetPoint" />
          </mxGeometry>
        </mxCell>
        <mxCell id="x9CeoxvAhUATu_pXnIox-80" style="edgeStyle=orthogonalEdgeStyle;rounded=0;orthogonalLoop=1;jettySize=auto;html=1;exitX=0.5;exitY=1;exitDx=0;exitDy=0;entryX=0.5;entryY=0;entryDx=0;entryDy=0;fontStyle=1" edge="1" parent="WIyWlLk6GJQsqaUBKTNV-1" source="x9CeoxvAhUATu_pXnIox-81" target="x9CeoxvAhUATu_pXnIox-83">
          <mxGeometry relative="1" as="geometry" />
        </mxCell>
        <mxCell id="x9CeoxvAhUATu_pXnIox-81" value="Podświetl walce" style="rounded=0;whiteSpace=wrap;html=1;fontStyle=1;fillColor=#dae8fc;strokeColor=#6c8ebf;" vertex="1" parent="WIyWlLk6GJQsqaUBKTNV-1">
          <mxGeometry x="344" y="170" width="160" height="60" as="geometry" />
        </mxCell>
        <mxCell id="x9CeoxvAhUATu_pXnIox-82" style="edgeStyle=orthogonalEdgeStyle;rounded=0;orthogonalLoop=1;jettySize=auto;html=1;exitX=0.5;exitY=1;exitDx=0;exitDy=0;entryX=0.5;entryY=0;entryDx=0;entryDy=0;fontStyle=1" edge="1" parent="WIyWlLk6GJQsqaUBKTNV-1" source="x9CeoxvAhUATu_pXnIox-83" target="x9CeoxvAhUATu_pXnIox-85">
          <mxGeometry relative="1" as="geometry" />
        </mxCell>
        <mxCell id="x9CeoxvAhUATu_pXnIox-83" value="Podświetl napis&lt;br&gt;&quot;WRZUĆ ŻETONY&quot;" style="rounded=0;whiteSpace=wrap;html=1;fontStyle=1;fillColor=#dae8fc;strokeColor=#6c8ebf;" vertex="1" parent="WIyWlLk6GJQsqaUBKTNV-1">
          <mxGeometry x="344" y="260" width="160" height="60" as="geometry" />
        </mxCell>
        <mxCell id="x9CeoxvAhUATu_pXnIox-84" style="edgeStyle=orthogonalEdgeStyle;rounded=0;orthogonalLoop=1;jettySize=auto;html=1;exitX=0.5;exitY=1;exitDx=0;exitDy=0;entryX=0.5;entryY=0;entryDx=0;entryDy=0;fontStyle=1" edge="1" parent="WIyWlLk6GJQsqaUBKTNV-1" source="x9CeoxvAhUATu_pXnIox-85" target="x9CeoxvAhUATu_pXnIox-86">
          <mxGeometry relative="1" as="geometry" />
        </mxCell>
        <mxCell id="x9CeoxvAhUATu_pXnIox-85" value="Wrzucenie&lt;br&gt;żetonów&lt;br&gt;przez gracza" style="shape=parallelogram;perimeter=parallelogramPerimeter;whiteSpace=wrap;html=1;fixedSize=1;strokeWidth=1;perimeterSpacing=0;rounded=0;fontStyle=1;fillColor=#d5e8d4;strokeColor=#82b366;" vertex="1" parent="WIyWlLk6GJQsqaUBKTNV-1">
          <mxGeometry x="344" y="350" width="160" height="60" as="geometry" />
        </mxCell>
        <mxCell id="x9CeoxvAhUATu_pXnIox-86" value="&lt;div align=&quot;center&quot;&gt;Czy gracz wrzucił wystarczającą liczbę żetonów?&lt;/div&gt;" style="rhombus;whiteSpace=wrap;html=1;align=center;fontStyle=1;spacing=0;spacingTop=4;fillColor=#f8cecc;strokeColor=#b85450;" vertex="1" parent="WIyWlLk6GJQsqaUBKTNV-1">
          <mxGeometry x="344" y="440" width="160" height="100" as="geometry" />
        </mxCell>
        <mxCell id="x9CeoxvAhUATu_pXnIox-87" style="edgeStyle=orthogonalEdgeStyle;rounded=0;orthogonalLoop=1;jettySize=auto;html=1;exitX=0.5;exitY=1;exitDx=0;exitDy=0;entryX=0.5;entryY=0;entryDx=0;entryDy=0;fontStyle=1" edge="1" parent="WIyWlLk6GJQsqaUBKTNV-1" source="x9CeoxvAhUATu_pXnIox-88" target="x9CeoxvAhUATu_pXnIox-90">
          <mxGeometry relative="1" as="geometry" />
        </mxCell>
        <mxCell id="x9CeoxvAhUATu_pXnIox-88" value="Podświetl przycisk&lt;br&gt;&quot;LOSUJ&quot;" style="rounded=0;whiteSpace=wrap;html=1;fontStyle=1;fillColor=#dae8fc;strokeColor=#6c8ebf;" vertex="1" parent="WIyWlLk6GJQsqaUBKTNV-1">
          <mxGeometry x="344" y="690" width="160" height="60" as="geometry" />
        </mxCell>
        <mxCell id="x9CeoxvAhUATu_pXnIox-89" style="edgeStyle=orthogonalEdgeStyle;rounded=0;orthogonalLoop=1;jettySize=auto;html=1;exitX=0.5;exitY=1;exitDx=0;exitDy=0;entryX=0.5;entryY=0;entryDx=0;entryDy=0;fontStyle=1" edge="1" parent="WIyWlLk6GJQsqaUBKTNV-1" source="x9CeoxvAhUATu_pXnIox-90" target="x9CeoxvAhUATu_pXnIox-92">
          <mxGeometry relative="1" as="geometry" />
        </mxCell>
        <mxCell id="x9CeoxvAhUATu_pXnIox-90" value="&lt;div&gt;Wciśnięcie&lt;/div&gt;&lt;div&gt;przez gracza&lt;/div&gt;&lt;div&gt;przycisku &quot;LOSUJ&quot;&lt;/div&gt;" style="shape=parallelogram;perimeter=parallelogramPerimeter;whiteSpace=wrap;html=1;fixedSize=1;fontStyle=1;fillColor=#d5e8d4;strokeColor=#82b366;" vertex="1" parent="WIyWlLk6GJQsqaUBKTNV-1">
          <mxGeometry x="344" y="780" width="160" height="60" as="geometry" />
        </mxCell>
        <mxCell id="x9CeoxvAhUATu_pXnIox-91" style="edgeStyle=orthogonalEdgeStyle;rounded=0;orthogonalLoop=1;jettySize=auto;html=1;exitX=0.5;exitY=1;exitDx=0;exitDy=0;entryX=0.5;entryY=0;entryDx=0;entryDy=0;fontStyle=1" edge="1" parent="WIyWlLk6GJQsqaUBKTNV-1" source="x9CeoxvAhUATu_pXnIox-92" target="x9CeoxvAhUATu_pXnIox-95">
          <mxGeometry relative="1" as="geometry" />
        </mxCell>
        <mxCell id="x9CeoxvAhUATu_pXnIox-92" value="Zakręć walcami" style="rounded=0;whiteSpace=wrap;html=1;fontStyle=1;fillColor=#dae8fc;strokeColor=#6c8ebf;" vertex="1" parent="WIyWlLk6GJQsqaUBKTNV-1">
          <mxGeometry x="344" y="870" width="160" height="60" as="geometry" />
        </mxCell>
        <mxCell id="x9CeoxvAhUATu_pXnIox-95" value="&lt;div align=&quot;center&quot;&gt;Czy wylosowano trzy identyczne symbole?&lt;/div&gt;" style="rhombus;whiteSpace=wrap;html=1;align=center;fontStyle=1;fillColor=#f8cecc;strokeColor=#b85450;spacingTop=-2;" vertex="1" parent="WIyWlLk6GJQsqaUBKTNV-1">
          <mxGeometry x="344" y="960" width="160" height="100" as="geometry" />
        </mxCell>
        <mxCell id="x9CeoxvAhUATu_pXnIox-96" value="" style="endArrow=classic;html=1;rounded=0;exitX=0.5;exitY=1;exitDx=0;exitDy=0;entryX=0.5;entryY=0;entryDx=0;entryDy=0;fontStyle=1" edge="1" parent="WIyWlLk6GJQsqaUBKTNV-1" source="x9CeoxvAhUATu_pXnIox-86" target="x9CeoxvAhUATu_pXnIox-111">
          <mxGeometry relative="1" as="geometry">
            <mxPoint x="510" y="540" as="sourcePoint" />
            <mxPoint x="610" y="540" as="targetPoint" />
          </mxGeometry>
        </mxCell>
        <mxCell id="x9CeoxvAhUATu_pXnIox-97" value="&lt;div&gt;Tak&lt;/div&gt;" style="edgeLabel;resizable=0;html=1;;align=center;verticalAlign=middle;fontStyle=1" connectable="0" vertex="1" parent="x9CeoxvAhUATu_pXnIox-96">
          <mxGeometry relative="1" as="geometry">
            <mxPoint y="-5" as="offset" />
          </mxGeometry>
        </mxCell>
        <mxCell id="x9CeoxvAhUATu_pXnIox-98" value="" style="endArrow=classic;html=1;rounded=0;exitX=0;exitY=0.5;exitDx=0;exitDy=0;entryX=0;entryY=0.5;entryDx=0;entryDy=0;fontStyle=1" edge="1" parent="WIyWlLk6GJQsqaUBKTNV-1">
          <mxGeometry relative="1" as="geometry">
            <mxPoint x="503.9999999999998" y="490" as="sourcePoint" />
            <mxPoint x="503.9999999999998" y="290" as="targetPoint" />
            <Array as="points">
              <mxPoint x="570" y="490" />
              <mxPoint x="570" y="290" />
            </Array>
          </mxGeometry>
        </mxCell>
        <mxCell id="x9CeoxvAhUATu_pXnIox-99" value="Nie" style="edgeLabel;resizable=0;html=1;;align=center;verticalAlign=middle;fontStyle=1" connectable="0" vertex="1" parent="x9CeoxvAhUATu_pXnIox-98">
          <mxGeometry relative="1" as="geometry">
            <mxPoint x="-30" y="100" as="offset" />
          </mxGeometry>
        </mxCell>
        <mxCell id="x9CeoxvAhUATu_pXnIox-133" style="edgeStyle=orthogonalEdgeStyle;rounded=0;orthogonalLoop=1;jettySize=auto;html=1;exitX=0.5;exitY=1;exitDx=0;exitDy=0;entryX=0.5;entryY=0;entryDx=0;entryDy=0;fontStyle=1" edge="1" parent="WIyWlLk6GJQsqaUBKTNV-1" source="x9CeoxvAhUATu_pXnIox-101" target="x9CeoxvAhUATu_pXnIox-109">
          <mxGeometry relative="1" as="geometry">
            <Array as="points">
              <mxPoint x="220" y="1730" />
              <mxPoint x="423" y="1730" />
              <mxPoint x="423" y="1754" />
            </Array>
          </mxGeometry>
        </mxCell>
        <mxCell id="x9CeoxvAhUATu_pXnIox-101" value="Zagraj sygnał dźwiękowy&lt;br&gt;przegranej" style="rounded=0;whiteSpace=wrap;html=1;fontStyle=1;fillColor=#dae8fc;strokeColor=#6c8ebf;" vertex="1" parent="WIyWlLk6GJQsqaUBKTNV-1">
          <mxGeometry x="140" y="1310" width="160" height="60" as="geometry" />
        </mxCell>
        <mxCell id="x9CeoxvAhUATu_pXnIox-102" value="&lt;div&gt;Czy wylosowano&lt;/div&gt;&lt;div&gt;symbole 7?&lt;/div&gt;" style="rhombus;whiteSpace=wrap;html=1;align=center;fontStyle=1;fillColor=#f8cecc;strokeColor=#b85450;" vertex="1" parent="WIyWlLk6GJQsqaUBKTNV-1">
          <mxGeometry x="503" y="1150" width="160" height="100" as="geometry" />
        </mxCell>
        <mxCell id="x9CeoxvAhUATu_pXnIox-103" style="edgeStyle=orthogonalEdgeStyle;rounded=0;orthogonalLoop=1;jettySize=auto;html=1;exitX=0.5;exitY=1;exitDx=0;exitDy=0;entryX=0.5;entryY=0;entryDx=0;entryDy=0;fontStyle=1" edge="1" parent="WIyWlLk6GJQsqaUBKTNV-1" source="x9CeoxvAhUATu_pXnIox-104" target="x9CeoxvAhUATu_pXnIox-102">
          <mxGeometry relative="1" as="geometry" />
        </mxCell>
        <mxCell id="x9CeoxvAhUATu_pXnIox-104" value="Zagraj sygnał dźwiękowy wygranej" style="rounded=0;whiteSpace=wrap;html=1;fontStyle=1;fillColor=#dae8fc;strokeColor=#6c8ebf;" vertex="1" parent="WIyWlLk6GJQsqaUBKTNV-1">
          <mxGeometry x="503" y="1060" width="160" height="60" as="geometry" />
        </mxCell>
        <mxCell id="x9CeoxvAhUATu_pXnIox-141" style="edgeStyle=orthogonalEdgeStyle;rounded=0;orthogonalLoop=1;jettySize=auto;html=1;exitX=0.5;exitY=1;exitDx=0;exitDy=0;entryX=0.5;entryY=0;entryDx=0;entryDy=0;" edge="1" parent="WIyWlLk6GJQsqaUBKTNV-1" source="x9CeoxvAhUATu_pXnIox-105" target="x9CeoxvAhUATu_pXnIox-139">
          <mxGeometry relative="1" as="geometry">
            <Array as="points">
              <mxPoint x="444" y="1610" />
              <mxPoint x="583" y="1610" />
            </Array>
          </mxGeometry>
        </mxCell>
        <mxCell id="x9CeoxvAhUATu_pXnIox-105" value="Wypłać nagrodę podstawową" style="rounded=0;whiteSpace=wrap;html=1;fontStyle=1;fillColor=#dae8fc;strokeColor=#6c8ebf;" vertex="1" parent="WIyWlLk6GJQsqaUBKTNV-1">
          <mxGeometry x="364" y="1460" width="160" height="60" as="geometry" />
        </mxCell>
        <mxCell id="x9CeoxvAhUATu_pXnIox-106" style="edgeStyle=orthogonalEdgeStyle;rounded=0;orthogonalLoop=1;jettySize=auto;html=1;exitX=0.5;exitY=1;exitDx=0;exitDy=0;entryX=0.5;entryY=0;entryDx=0;entryDy=0;fontStyle=1" edge="1" parent="WIyWlLk6GJQsqaUBKTNV-1" source="x9CeoxvAhUATu_pXnIox-107" target="x9CeoxvAhUATu_pXnIox-115">
          <mxGeometry relative="1" as="geometry" />
        </mxCell>
        <mxCell id="x9CeoxvAhUATu_pXnIox-107" value="Podświetl napis &quot;JACKPOT&quot;" style="rounded=0;whiteSpace=wrap;html=1;fontStyle=1;fillColor=#dae8fc;strokeColor=#6c8ebf;" vertex="1" parent="WIyWlLk6GJQsqaUBKTNV-1">
          <mxGeometry x="643" y="1250" width="160" height="60" as="geometry" />
        </mxCell>
        <mxCell id="x9CeoxvAhUATu_pXnIox-137" style="edgeStyle=orthogonalEdgeStyle;rounded=0;orthogonalLoop=1;jettySize=auto;html=1;exitX=0.5;exitY=1;exitDx=0;exitDy=0;entryX=0.5;entryY=0;entryDx=0;entryDy=0;" edge="1" parent="WIyWlLk6GJQsqaUBKTNV-1" source="x9CeoxvAhUATu_pXnIox-108" target="x9CeoxvAhUATu_pXnIox-135">
          <mxGeometry relative="1" as="geometry" />
        </mxCell>
        <mxCell id="x9CeoxvAhUATu_pXnIox-108" value="Wypłać nagrodę główną" style="rounded=0;whiteSpace=wrap;html=1;fontStyle=1;fillColor=#dae8fc;strokeColor=#6c8ebf;" vertex="1" parent="WIyWlLk6GJQsqaUBKTNV-1">
          <mxGeometry x="643" y="1430" width="160" height="60" as="geometry" />
        </mxCell>
        <mxCell id="x9CeoxvAhUATu_pXnIox-109" value="Czy gracz chce&lt;br&gt;grać dalej?" style="rhombus;whiteSpace=wrap;html=1;fontStyle=1;fillColor=#f8cecc;strokeColor=#b85450;" vertex="1" parent="WIyWlLk6GJQsqaUBKTNV-1">
          <mxGeometry x="342" y="1754" width="160" height="100" as="geometry" />
        </mxCell>
        <mxCell id="x9CeoxvAhUATu_pXnIox-110" style="edgeStyle=orthogonalEdgeStyle;rounded=0;orthogonalLoop=1;jettySize=auto;html=1;exitX=0.5;exitY=1;exitDx=0;exitDy=0;entryX=0.5;entryY=0;entryDx=0;entryDy=0;fontStyle=1" edge="1" parent="WIyWlLk6GJQsqaUBKTNV-1" source="x9CeoxvAhUATu_pXnIox-111" target="x9CeoxvAhUATu_pXnIox-88">
          <mxGeometry relative="1" as="geometry">
            <mxPoint x="630" y="869.94" as="sourcePoint" />
          </mxGeometry>
        </mxCell>
        <mxCell id="x9CeoxvAhUATu_pXnIox-111" value="Zgaś napis&lt;br&gt;&quot;WRZUĆ ŻETONY&quot;" style="rounded=0;whiteSpace=wrap;html=1;fontStyle=1;fillColor=#dae8fc;strokeColor=#6c8ebf;" vertex="1" parent="WIyWlLk6GJQsqaUBKTNV-1">
          <mxGeometry x="344" y="600" width="160" height="60" as="geometry" />
        </mxCell>
        <mxCell id="x9CeoxvAhUATu_pXnIox-112" style="edgeStyle=orthogonalEdgeStyle;rounded=0;orthogonalLoop=1;jettySize=auto;html=1;exitX=0.5;exitY=1;exitDx=0;exitDy=0;entryX=0.5;entryY=0;entryDx=0;entryDy=0;fontStyle=1" edge="1" parent="WIyWlLk6GJQsqaUBKTNV-1" source="x9CeoxvAhUATu_pXnIox-113" target="x9CeoxvAhUATu_pXnIox-105">
          <mxGeometry relative="1" as="geometry" />
        </mxCell>
        <mxCell id="x9CeoxvAhUATu_pXnIox-113" value="Zamigaj podświetleniem walców" style="rounded=0;whiteSpace=wrap;html=1;fontStyle=1;fillColor=#dae8fc;strokeColor=#6c8ebf;" vertex="1" parent="WIyWlLk6GJQsqaUBKTNV-1">
          <mxGeometry x="364" y="1310" width="160" height="60" as="geometry" />
        </mxCell>
        <mxCell id="x9CeoxvAhUATu_pXnIox-114" style="edgeStyle=orthogonalEdgeStyle;rounded=0;orthogonalLoop=1;jettySize=auto;html=1;exitX=0.5;exitY=1;exitDx=0;exitDy=0;entryX=0.5;entryY=0;entryDx=0;entryDy=0;fontStyle=1" edge="1" parent="WIyWlLk6GJQsqaUBKTNV-1" source="x9CeoxvAhUATu_pXnIox-115" target="x9CeoxvAhUATu_pXnIox-108">
          <mxGeometry relative="1" as="geometry" />
        </mxCell>
        <mxCell id="x9CeoxvAhUATu_pXnIox-115" value="Zakręć walcami&lt;br&gt;i zamigaj ich podświetleniem" style="rounded=0;whiteSpace=wrap;html=1;fontStyle=1;fillColor=#dae8fc;strokeColor=#6c8ebf;" vertex="1" parent="WIyWlLk6GJQsqaUBKTNV-1">
          <mxGeometry x="643" y="1340" width="160" height="60" as="geometry" />
        </mxCell>
        <mxCell id="x9CeoxvAhUATu_pXnIox-116" value="" style="endArrow=none;html=1;rounded=0;fontStyle=1;entryX=0.5;entryY=1;entryDx=0;entryDy=0;" edge="1" parent="WIyWlLk6GJQsqaUBKTNV-1" target="x9CeoxvAhUATu_pXnIox-135">
          <mxGeometry width="50" height="50" relative="1" as="geometry">
            <mxPoint x="580" y="1610" as="sourcePoint" />
            <mxPoint x="723" y="1580" as="targetPoint" />
            <Array as="points">
              <mxPoint x="723" y="1610" />
            </Array>
          </mxGeometry>
        </mxCell>
        <mxCell id="x9CeoxvAhUATu_pXnIox-118" value="" style="endArrow=classic;html=1;rounded=0;entryX=0;entryY=0.5;entryDx=0;entryDy=0;exitX=0;exitY=0.5;exitDx=0;exitDy=0;fontStyle=1" edge="1" parent="WIyWlLk6GJQsqaUBKTNV-1" source="x9CeoxvAhUATu_pXnIox-109" target="x9CeoxvAhUATu_pXnIox-83">
          <mxGeometry relative="1" as="geometry">
            <mxPoint x="313" y="1770" as="sourcePoint" />
            <mxPoint x="314" y="290" as="targetPoint" />
            <Array as="points">
              <mxPoint x="90" y="1804" />
              <mxPoint x="90" y="1260" />
              <mxPoint x="90" y="290" />
            </Array>
          </mxGeometry>
        </mxCell>
        <mxCell id="x9CeoxvAhUATu_pXnIox-119" value="&lt;div&gt;Tak&lt;/div&gt;" style="edgeLabel;resizable=0;html=1;;align=center;verticalAlign=middle;fontStyle=1" connectable="0" vertex="1" parent="x9CeoxvAhUATu_pXnIox-118">
          <mxGeometry relative="1" as="geometry">
            <mxPoint x="220" y="759" as="offset" />
          </mxGeometry>
        </mxCell>
        <mxCell id="x9CeoxvAhUATu_pXnIox-120" value="" style="endArrow=classic;html=1;rounded=0;exitX=0.5;exitY=1;exitDx=0;exitDy=0;entryX=0.5;entryY=0;entryDx=0;entryDy=0;fontStyle=1" edge="1" parent="WIyWlLk6GJQsqaUBKTNV-1">
          <mxGeometry relative="1" as="geometry">
            <mxPoint x="421.58" y="1854" as="sourcePoint" />
            <mxPoint x="421.5800000000002" y="1914" as="targetPoint" />
          </mxGeometry>
        </mxCell>
        <mxCell id="x9CeoxvAhUATu_pXnIox-121" value="Nie" style="edgeLabel;resizable=0;html=1;;align=center;verticalAlign=middle;fontStyle=1" connectable="0" vertex="1" parent="x9CeoxvAhUATu_pXnIox-120">
          <mxGeometry relative="1" as="geometry">
            <mxPoint as="offset" />
          </mxGeometry>
        </mxCell>
        <mxCell id="x9CeoxvAhUATu_pXnIox-122" value="" style="endArrow=classic;html=1;rounded=0;exitX=0;exitY=0.5;exitDx=0;exitDy=0;entryX=0.5;entryY=0;entryDx=0;entryDy=0;fontStyle=1" edge="1" parent="WIyWlLk6GJQsqaUBKTNV-1" source="x9CeoxvAhUATu_pXnIox-102" target="x9CeoxvAhUATu_pXnIox-113">
          <mxGeometry relative="1" as="geometry">
            <mxPoint x="400" y="1240" as="sourcePoint" />
            <mxPoint x="500" y="1240" as="targetPoint" />
            <Array as="points">
              <mxPoint x="443" y="1200" />
            </Array>
          </mxGeometry>
        </mxCell>
        <mxCell id="x9CeoxvAhUATu_pXnIox-123" value="Nie" style="edgeLabel;resizable=0;html=1;;align=center;verticalAlign=middle;fontStyle=1" connectable="0" vertex="1" parent="x9CeoxvAhUATu_pXnIox-122">
          <mxGeometry relative="1" as="geometry">
            <mxPoint x="27" y="-15" as="offset" />
          </mxGeometry>
        </mxCell>
        <mxCell id="x9CeoxvAhUATu_pXnIox-124" value="" style="endArrow=classic;html=1;rounded=0;exitX=1;exitY=0.5;exitDx=0;exitDy=0;entryX=0.5;entryY=0;entryDx=0;entryDy=0;fontStyle=1" edge="1" parent="WIyWlLk6GJQsqaUBKTNV-1" source="x9CeoxvAhUATu_pXnIox-102" target="x9CeoxvAhUATu_pXnIox-107">
          <mxGeometry relative="1" as="geometry">
            <mxPoint x="690" y="1200" as="sourcePoint" />
            <mxPoint x="790" y="1200" as="targetPoint" />
            <Array as="points">
              <mxPoint x="723" y="1200" />
            </Array>
          </mxGeometry>
        </mxCell>
        <mxCell id="x9CeoxvAhUATu_pXnIox-125" value="Tak" style="edgeLabel;resizable=0;html=1;;align=center;verticalAlign=middle;fontStyle=1" connectable="0" vertex="1" parent="x9CeoxvAhUATu_pXnIox-124">
          <mxGeometry relative="1" as="geometry">
            <mxPoint x="-28" as="offset" />
          </mxGeometry>
        </mxCell>
        <mxCell id="x9CeoxvAhUATu_pXnIox-132" style="edgeStyle=orthogonalEdgeStyle;rounded=0;orthogonalLoop=1;jettySize=auto;html=1;exitX=0.5;exitY=1;exitDx=0;exitDy=0;entryX=0.5;entryY=0;entryDx=0;entryDy=0;fontStyle=1" edge="1" parent="WIyWlLk6GJQsqaUBKTNV-1" source="x9CeoxvAhUATu_pXnIox-126" target="x9CeoxvAhUATu_pXnIox-127">
          <mxGeometry relative="1" as="geometry" />
        </mxCell>
        <mxCell id="x9CeoxvAhUATu_pXnIox-126" value="Wyłącz całe&lt;br&gt;podświetlenie" style="rounded=0;whiteSpace=wrap;html=1;fontStyle=1;fillColor=#dae8fc;strokeColor=#6c8ebf;" vertex="1" parent="WIyWlLk6GJQsqaUBKTNV-1">
          <mxGeometry x="342" y="1914" width="160" height="60" as="geometry" />
        </mxCell>
        <mxCell id="x9CeoxvAhUATu_pXnIox-127" value="STOP" style="ellipse;whiteSpace=wrap;html=1;fontStyle=1;fillColor=#fff2cc;strokeColor=#d6b656;" vertex="1" parent="WIyWlLk6GJQsqaUBKTNV-1">
          <mxGeometry x="343" y="2004" width="160" height="60" as="geometry" />
        </mxCell>
        <mxCell id="x9CeoxvAhUATu_pXnIox-135" value="Wyłącz podświetlenie napisu &quot;JACKPOT&quot;" style="rounded=0;whiteSpace=wrap;html=1;fontStyle=1;fillColor=#dae8fc;strokeColor=#6c8ebf;" vertex="1" parent="WIyWlLk6GJQsqaUBKTNV-1">
          <mxGeometry x="643" y="1520" width="160" height="60" as="geometry" />
        </mxCell>
        <mxCell id="x9CeoxvAhUATu_pXnIox-139" value="Odebranie nagrody&lt;br&gt;przez gracza" style="shape=parallelogram;perimeter=parallelogramPerimeter;whiteSpace=wrap;html=1;fixedSize=1;fontStyle=1;fillColor=#d5e8d4;strokeColor=#82b366;" vertex="1" parent="WIyWlLk6GJQsqaUBKTNV-1">
          <mxGeometry x="503" y="1640" width="160" height="60" as="geometry" />
        </mxCell>
        <mxCell id="x9CeoxvAhUATu_pXnIox-143" value="" style="endArrow=none;html=1;rounded=0;fontStyle=1;entryX=0.5;entryY=1;entryDx=0;entryDy=0;" edge="1" parent="WIyWlLk6GJQsqaUBKTNV-1" target="x9CeoxvAhUATu_pXnIox-139">
          <mxGeometry width="50" height="50" relative="1" as="geometry">
            <mxPoint x="420" y="1730" as="sourcePoint" />
            <mxPoint x="583" y="1700" as="targetPoint" />
            <Array as="points">
              <mxPoint x="583" y="1730" />
            </Array>
          </mxGeometry>
        </mxCell>
        <mxCell id="x9CeoxvAhUATu_pXnIox-144" value="" style="endArrow=classic;html=1;rounded=0;exitX=0;exitY=0.5;exitDx=0;exitDy=0;entryX=0.5;entryY=0;entryDx=0;entryDy=0;" edge="1" parent="WIyWlLk6GJQsqaUBKTNV-1" source="x9CeoxvAhUATu_pXnIox-95" target="x9CeoxvAhUATu_pXnIox-101">
          <mxGeometry relative="1" as="geometry">
            <mxPoint x="300" y="1080" as="sourcePoint" />
            <mxPoint x="400" y="1080" as="targetPoint" />
            <Array as="points">
              <mxPoint x="220" y="1010" />
            </Array>
          </mxGeometry>
        </mxCell>
        <mxCell id="x9CeoxvAhUATu_pXnIox-145" value="Nie" style="edgeLabel;resizable=0;html=1;;align=center;verticalAlign=middle;fontStyle=1" connectable="0" vertex="1" parent="x9CeoxvAhUATu_pXnIox-144">
          <mxGeometry relative="1" as="geometry">
            <mxPoint x="90" y="-88" as="offset" />
          </mxGeometry>
        </mxCell>
        <mxCell id="x9CeoxvAhUATu_pXnIox-146" value="" style="endArrow=classic;html=1;rounded=0;exitX=1;exitY=0.5;exitDx=0;exitDy=0;entryX=0.5;entryY=0;entryDx=0;entryDy=0;" edge="1" parent="WIyWlLk6GJQsqaUBKTNV-1" source="x9CeoxvAhUATu_pXnIox-95" target="x9CeoxvAhUATu_pXnIox-104">
          <mxGeometry relative="1" as="geometry">
            <mxPoint x="540" y="1000" as="sourcePoint" />
            <mxPoint x="640" y="1000" as="targetPoint" />
            <Array as="points">
              <mxPoint x="583" y="1010" />
            </Array>
          </mxGeometry>
        </mxCell>
        <mxCell id="x9CeoxvAhUATu_pXnIox-147" value="Tak" style="edgeLabel;resizable=0;html=1;;align=center;verticalAlign=middle;fontStyle=1" connectable="0" vertex="1" parent="x9CeoxvAhUATu_pXnIox-146">
          <mxGeometry relative="1" as="geometry">
            <mxPoint x="-29" as="offset" />
          </mxGeometry>
        </mxCell>
      </root>
    </mxGraphModel>
  </diagram>
</mxfile>
